<?xml version="1.0" encoding="utf-8"?>
<svg xmlns="http://www.w3.org/2000/svg" xmlns:svg="http://www.w3.org/2000/svg" version="1.1" viewBox="0 0 1400 590">
	<title>The titlepage for the Standard Ebooks edition of Eugene Onegin, by Alexander Pushkin. Translated by Henry Spalding</title>
	<g aria-label="EUGENE ONEGIN" class="title">
		<path d="M 314.71564,52.807016 H 270.55189 V 130 h 44.16375 v -15.4386 h -26.5731 V 99.029239 h 25.45029 V 83.590642 H 288.14254 V 68.245613 h 26.5731 z"/>
		<path d="m 389.14985,52.807016 h -17.59064 v 44.63158 c 0,12.912284 -3.92983,16.654974 -12.53802,16.654974 -8.60818,0 -12.53801,-3.74269 -12.53801,-16.654974 v -44.63158 h -17.59064 v 49.777774 c 0,19.08772 10.47953,28.81872 30.12865,28.81872 19.64913,0 30.12866,-9.731 30.12866,-28.81872 z"/>
		<path d="m 474.25658,86.771929 h -35.64912 v 13.567251 h 17.77778 c 0,9.45029 -8.32749,14.87719 -16.74854,14.87719 -10.8538,0 -19.64912,-10.66666 -19.64912,-23.766078 0,-13.380117 8.79532,-24.140352 19.64912,-24.140352 6.83041,0 12.72515,2.713451 17.21637,9.918129 L 468.36185,64.59649 C 461.625,56.456139 452.17471,51.403507 438.60746,51.403507 c -21.7076,0 -37.61404,17.871346 -37.61404,40.046785 0,22.081868 16.84211,39.953218 37.61404,39.953218 15.15789,0 31.4386,-8.32749 35.64912,-27.88304 z"/>
		<path d="M 531.10454,52.807016 H 486.94079 V 130 h 44.16375 v -15.4386 h -26.5731 V 99.029239 h 25.45029 V 83.590642 H 504.53144 V 68.245613 h 26.5731 z"/>
		<path d="m 563.80776,82.093566 h 0.18713 L 594.68495,130 H 612.2756 V 52.807016 h -17.59065 v 47.906434 h -0.18713 L 563.80776,52.807016 H 546.21712 V 130 h 17.59064 z"/>
		<path d="M 672.68347,52.807016 H 628.51973 V 130 h 44.16374 v -15.4386 h -26.5731 V 99.029239 h 25.45029 V 83.590642 H 646.11037 V 68.245613 h 26.5731 z"/>
		<path d="m 714.91885,91.356724 c 0,22.549706 16.09357,40.046786 38.92398,40.046786 22.17544,0 38.83041,-17.49708 38.83041,-40.046786 0,-22.549708 -17.40351,-39.953217 -38.83041,-39.953217 -21.23977,0 -38.92398,17.403509 -38.92398,39.953217 z m 18.99416,0 c 0,-11.508772 6.36257,-23.017544 19.92982,-23.017544 13.66082,0 19.83626,11.508772 19.83626,23.017544 0,11.508776 -5.80117,23.017546 -19.83626,23.017546 -14.40936,0 -19.92982,-11.50877 -19.92982,-23.017546 z"/>
		<path d="m 823.02559,82.093566 h 0.18714 L 853.90279,130 h 17.59064 V 52.807016 h -17.59064 v 47.906434 h -0.18714 L 823.02559,52.807016 H 805.43495 V 130 h 17.59064 z"/>
		<path d="M 931.90131,52.807016 H 887.73756 V 130 h 44.16375 v -15.4386 h -26.5731 V 99.029239 H 930.7785 V 83.590642 H 905.32821 V 68.245613 h 26.5731 z"/>
		<path d="m 1016.8151,86.771929 h -35.64912 v 13.567251 h 17.77778 c 0,9.45029 -8.32749,14.87719 -16.74854,14.87719 -10.8538,0 -19.64913,-10.66666 -19.64913,-23.766078 0,-13.380117 8.79533,-24.140352 19.64913,-24.140352 6.83041,0 12.72514,2.713451 17.21637,9.918129 L 1010.9204,64.59649 c -6.7369,-8.140351 -16.18717,-13.192983 -29.75442,-13.192983 -21.70761,0 -37.61404,17.871346 -37.61404,40.046785 0,22.081868 16.84211,39.953218 37.61404,39.953218 15.15789,0 31.43862,-8.32749 35.64912,-27.88304 z"/>
		<path d="m 1047.0899,52.807016 h -17.5906 V 130 h 17.5906 z"/>
		<path d="m 1080.9642,82.093566 h 0.1871 L 1111.8414,130 h 17.5906 V 52.807016 h -17.5906 v 47.906434 h -0.1871 l -30.6901,-47.906434 h -17.5907 V 130 h 17.5907 z"/>
	</g>
	<g aria-label="ALEXANDER PUSHKIN" class="author">
		<path d="M 293.94299,232.10526 H 281.73246 L 258.36404,290 h 14.17544 l 4.2807,-11.57895 h 22.03509 L 303.13597,290 h 14.17544 z m 0.42105,34.73685 H 281.31141 L 287.76755,250 h 0.14035 z"/>
		<path d="M 337.69408,232.10526 H 324.5011 V 290 h 33.12281 v -11.57895 h -19.92983 z"/>
		<path d="M 402.23466,232.10526 H 369.11185 V 290 h 33.12281 v -11.57895 h -19.92983 v -11.64912 h 19.08772 v -11.57895 h -19.08772 v -11.50877 h 19.92983 z"/>
		<path d="m 468.99452,290 -22.59649,-31.15789 18.94736,-26.73685 h -16.42105 l -10.66666,15.78948 -10.66667,-15.78948 h -15.7193 L 430.11732,258.84211 408.22259,290 h 16.35088 L 438.25768,270.2807 451.94189,290 Z"/>
		<path d="M 505.28071,232.10526 H 493.07018 L 469.70176,290 h 14.17544 l 4.2807,-11.57895 h 22.03509 L 514.47369,290 h 14.17544 z m 0.42105,34.73685 H 492.64913 L 499.10527,250 h 0.14035 z"/>
		<path d="m 549.03181,254.07018 h 0.14035 L 572.1897,290 h 13.19298 V 232.10526 H 572.1897 v 35.92983 h -0.14035 L 549.03181,232.10526 H 535.83882 V 290 h 13.19299 z"/>
		<path d="M 598.81578,232.10526 V 290 h 16.77193 c 15.92983,0 29.19299,-12.07018 29.19299,-28.98246 0,-16.8421 -13.33334,-28.91228 -29.19299,-28.91228 z m 13.19299,46.10527 v -34.31579 h 2.03508 c 9.82456,0 16.49123,7.50877 16.49123,17.19298 -0.0702,9.68421 -6.73684,17.12281 -16.49123,17.12281 z"/>
		<path d="m 688.74782,232.10526 h -33.1228 V 290 h 33.1228 V 278.42105 H 668.818 v -11.64912 h 19.08772 V 255.19298 H 668.818 v -11.50877 h 19.92982 z"/>
		<path d="M 701.33223,232.10526 V 290 h 13.19298 V 267.12281 L 732.20943,290 h 16.77192 l -19.92982,-23.92982 c 7.08772,-2.24562 11.85965,-8.07018 11.85965,-16.77193 0,-11.36842 -8.14035,-17.19299 -18.87719,-17.19299 z m 13.19298,25.68421 v -15.15789 h 1.54386 c 4.98246,0 10.94737,0.35088 10.94737,7.57895 0,7.22807 -5.96491,7.57894 -10.94737,7.57894 z"/>
		<path d="M 780.82238,232.10526 V 290 h 13.19298 v -21.47368 h 7.92982 c 11.29825,0 19.78948,-6.66667 19.78948,-18.5965 0,-11.99999 -8.49123,-17.82456 -19.78948,-17.82456 z M 794.01536,258 v -15.36842 h 3.7193 c 5.19298,0 10.10526,1.75439 10.10526,7.7193 0,5.89473 -4.91228,7.64912 -10.10526,7.64912 z"/>
		<path d="m 877.05152,232.10526 h -13.19298 v 33.47369 c 0,9.68421 -2.94737,12.49123 -9.40351,12.49123 -6.45614,0 -9.40351,-2.80702 -9.40351,-12.49123 v -33.47369 h -13.19298 v 37.33334 c 0,14.31579 7.85965,21.61403 22.59649,21.61403 14.73684,0 22.59649,-7.29824 22.59649,-21.61403 z"/>
		<path d="m 909.74342,231.05263 c -9.33334,0 -18.8772,6.8772 -18.8772,17.68421 0,6.03509 4.07018,11.4386 11.01755,14.8772 6.87719,3.43859 13.05263,5.33333 13.05263,9.54385 0,5.40351 -5.47369,5.68422 -8.35088,5.68422 -6.45614,0 -14.17544,-6.52632 -14.17544,-6.52632 l -6.59649,11.08772 c 0,0 8.21053,7.64912 21.75439,7.64912 11.29824,0 21.82456,-4.8421 21.82456,-18.66666 0,-7.57895 -7.08772,-13.05264 -13.54386,-15.78948 -6.59649,-2.80702 -12.07018,-5.12281 -12.07018,-8.35088 0,-3.15789 2.38597,-5.19298 6.8772,-5.19298 5.96491,0 11.71929,4 11.71929,4 l 5.33334,-10.52631 c 0,0 -7.4386,-5.47369 -17.96491,-5.47369 z"/>
		<path d="m 953.75217,266.77193 h 18.66667 V 290 h 13.19298 v -57.89474 h -13.19298 v 23.08772 H 953.75217 V 232.10526 H 940.55919 V 290 h 13.19298 z"/>
		<path d="m 1051.7149,290 -26.9473,-30.45614 23.2982,-27.4386 h -16 l -19.8596,23.64913 V 232.10526 H 999.01317 V 290 h 13.19303 V 265.4386 L 1033.5395,290 Z"/>
		<path d="m 1072.4419,232.10526 h -13.193 V 290 h 13.193 z"/>
		<path d="m 1099.0976,254.07018 h 0.1403 L 1122.2555,290 h 13.1929 v -57.89474 h -13.1929 v 35.92983 h -0.1404 l -23.0175,-35.92983 h -13.193 V 290 h 13.193 z"/>
	</g>
	<g aria-label="translated by" class="contributor-descriptor">
		<path d="m 594.75525,463.42189 c 0,1.19023 2.50797,0.25505 2.50797,1.14772 0,1.14771 -1.78533,8.034 -1.78533,11.94474 0,3.31562 1.57279,3.99575 2.72051,3.99575 2.63549,0 6.24867,-2.89055 6.24867,-3.99575 0,-0.59512 -0.34007,-0.59512 -0.46759,-0.59512 -0.68013,0 -1.65781,1.87036 -3.99575,1.87036 -0.17003,0 -1.74283,-0.085 -1.74283,-2.33794 0,-0.68013 0.97769,-6.20617 1.36026,-8.84166 0.25505,-1.74283 0.12752,-2.50797 1.36025,-2.50797 0.93518,0 2.76302,0.21254 3.44315,0.21254 0.76514,0 1.02019,-0.25505 1.02019,-1.23273 0,-0.5101 -0.21254,-0.80765 -1.10521,-0.80765 -0.46758,0 -0.80765,0.0425 -2.46546,0.0425 -1.40276,0 -1.48778,-0.0425 -1.48778,-0.29755 0,-0.63762 0.76515,-2.63549 0.76515,-3.1881 0,-0.38257 -0.21254,-0.51009 -0.42508,-0.51009 -0.68013,0 -0.76515,0.5526 -2.46547,2.33793 -1.87035,1.95537 -3.48565,1.91286 -3.48565,2.76302 z"/>
		<path d="m 606.86272,467.41764 c 0,0.59511 0.34006,0.72264 0.51009,0.72264 0.21254,0 0.34006,-0.12753 0.46759,-0.25505 0.25505,-0.29756 0.59511,-2.84804 2.33794,-2.84804 0.76514,0 1.44527,0.76515 1.44527,2.89055 0,3.18809 -1.82784,9.43677 -1.82784,11.13708 0,1.0202 0.85015,1.10521 1.27523,1.10521 h 0.21254 c 1.53029,0 1.44528,0 2.38045,-7.22635 l 0.21254,-1.40277 c 0.21254,-1.78533 1.27524,-7.35387 3.1881,-7.35387 1.53028,0 1.36025,1.78533 2.29543,1.78533 0.76514,0 0.85016,-1.31775 0.93517,-1.6153 0.12753,-0.46759 0.46759,-1.02019 0.46759,-1.5728 0,-0.59511 -0.46759,-1.31774 -1.57279,-1.31774 -3.14559,0 -5.27099,4.37832 -5.56855,4.37832 -0.085,0 -0.12752,-0.0425 -1.19022,-2.80553 -0.25505,-0.68013 -0.68013,-1.48778 -1.5728,-1.48778 -0.38257,0 -3.99574,1.02019 -3.99574,5.8661 z"/>
		<path d="m 620.45398,475.15409 c 0,2.76302 0.51009,5.48353 4.54835,5.48353 4.03826,0 7.56642,-5.10096 7.77896,-5.10096 0.29755,0 -0.085,4.7609 2.63549,4.7609 1.14772,0 3.06057,-1.95537 4.12327,-3.48566 0.55261,-0.76514 0.76515,-1.40276 0.76515,-1.82784 0,-0.17003 -0.0425,-0.46759 -0.38257,-0.46759 -0.80766,0 -1.70032,2.76302 -3.10309,2.76302 -0.80765,0 -1.44527,-1.40276 -1.44527,-2.50797 0,-1.6153 0.42508,-3.57067 0.76515,-5.44102 0.34006,-1.91286 0.59511,-3.86823 0.97768,-5.44102 0.29756,-1.23273 0.85016,-2.25292 0.85016,-2.93305 0,-0.46759 -0.21254,-0.63762 -0.46759,-0.63762 -0.85016,0 -1.36025,2.08289 -2.21041,2.08289 -1.40277,0 -2.29543,-0.46759 -3.61318,-0.46759 -1.10521,0 -1.95537,0.21254 -3.10308,0.76515 -2.25292,1.0627 -4.20829,3.10308 -5.73858,5.52603 -1.31775,2.1254 -2.38044,4.54836 -2.38044,6.9288 z m 2.97555,-0.25505 c 0,-0.76514 0.085,-1.53028 0.21254,-2.29543 0.38258,-2.21041 1.40277,-4.12327 2.6355,-6.16365 1.27524,-2.16791 3.52816,-3.44315 5.27099,-3.44315 0.89266,0 2.80552,0.29756 2.80552,1.48778 0,0.12753 -1.14771,7.94899 -2.1679,9.98937 -0.38258,0.76515 -2.38045,3.82572 -5.44102,3.82572 -1.78534,0 -3.31563,-1.27524 -3.31563,-3.40064 z"/>
		<path d="m 641.69999,466.35494 c 0,0.46759 0.085,0.80765 0.38257,0.80765 0.93518,0 1.40277,-2.38044 2.72051,-2.38044 0.42508,0 0.97769,0.85016 0.97769,2.33794 0,3.27311 -1.87036,9.86184 -1.87036,11.64718 0,1.23273 0.34007,1.31775 1.48778,1.31775 1.10521,0 1.44527,-0.17004 1.5728,-1.10521 0.085,-0.59511 -0.21254,-0.085 0.85016,-5.82359 1.02019,-5.48353 0.51009,-5.10096 2.33794,-7.69395 0.97768,-1.40276 1.78533,-1.87035 2.76301,-1.87035 2.76302,0 2.97556,2.80553 2.97556,3.48566 0,1.57279 -0.89267,7.26886 -0.89267,10.49947 0,1.48777 0.72264,2.678 1.5728,2.678 1.87035,0 5.61105,-2.97556 5.61105,-4.63337 0,-0.25505 -0.085,-0.5101 -0.38257,-0.5101 -0.63762,0 -0.80765,0.5101 -1.31775,1.14772 0,0 -0.97768,0.93517 -1.70032,0.93517 -0.46758,0 -0.80765,-0.34006 -0.80765,-1.53028 0,-1.44527 0.72264,-5.95112 0.72264,-8.92668 0,-2.678 -0.59511,-5.31349 -3.57067,-5.31349 -1.78534,0 -4.03826,1.53028 -5.18597,2.42295 -1.5728,1.19022 -1.87035,2.1254 -2.1254,2.1254 -0.38257,0 0.51009,-4.46334 -1.95537,-4.46334 -1.6153,0 -4.16578,3.1881 -4.16578,4.84591 z"/>
		<path d="m 663.65071,477.70457 c 0,2.25292 3.06057,2.80553 4.71838,2.80553 5.44102,0 6.63125,-4.03826 6.63125,-5.56855 0,-2.84803 -1.61531,-4.03826 -2.93305,-5.52603 -1.02019,-1.10521 -3.35813,-2.84804 -3.35813,-4.46334 0,-1.27524 0.63762,-2.25292 2.25292,-2.25292 1.65781,0 1.82784,2.38044 3.35813,2.38044 0.21254,0 1.6153,-0.12752 1.6153,-1.44527 0,-1.65781 -1.65781,-2.21041 -3.95324,-2.21041 -3.31562,0 -5.78108,1.95536 -5.78108,4.8034 0,2.55048 1.6153,3.65568 3.31562,5.39851 1.53029,1.53029 2.93305,2.76302 2.93305,4.76089 0,0.5101 -0.29756,2.72051 -3.40064,2.72051 -2.59299,0 -1.87035,-2.93305 -4.03826,-2.93305 -0.51009,0 -1.36025,0.21254 -1.36025,1.53029 z"/>
		<path d="m 678.75033,476.34431 c 0,3.99575 1.23273,3.99575 2.08289,3.99575 0.80765,0 2.59299,-0.85016 3.6982,-2.12539 1.02019,-1.19023 2.12539,-2.6355 2.12539,-3.06058 0,-0.42508 -0.21254,-0.68013 -0.51009,-0.68013 -1.10521,0 -1.53029,3.01807 -3.86823,3.01807 -0.5526,0 -0.68012,-0.21254 -0.68012,-1.65781 0,-1.44527 0.51009,-4.12327 1.23273,-9.13921 1.36025,-9.13922 0.63762,-7.56642 2.21041,-15.81297 0.12752,-0.80765 0.42508,-1.36025 0.42508,-1.95537 0,-0.42507 -0.21254,-0.68012 -0.89267,-0.68012 -1.1052,0 -2.04038,0.42508 -5.14346,0.63762 -0.5526,0.0425 -0.63762,0.38257 -0.63762,0.59511 0,0.46759 0.38257,0.59511 1.23273,0.59511 0.5101,0 0.59511,-0.0425 1.23273,-0.0425 0.63762,0 1.0627,0.34007 1.0627,0.85016 0,0.5101 -0.63762,4.33581 -1.36025,8.92667 -0.42508,2.72051 -0.63762,5.73858 -1.0202,8.41658 -0.085,0.68013 -1.19022,5.69607 -1.19022,8.11902 z"/>
		<path d="m 689.28036,475.15409 c 0,2.76302 0.51009,5.48353 4.54835,5.48353 4.03826,0 7.56642,-5.10096 7.77896,-5.10096 0.29755,0 -0.085,4.7609 2.63549,4.7609 1.14772,0 3.06058,-1.95537 4.12328,-3.48566 0.5526,-0.76514 0.76514,-1.40276 0.76514,-1.82784 0,-0.17003 -0.0425,-0.46759 -0.38257,-0.46759 -0.80765,0 -1.70032,2.76302 -3.10308,2.76302 -0.80766,0 -1.44528,-1.40276 -1.44528,-2.50797 0,-1.6153 0.42508,-3.57067 0.76515,-5.44102 0.34006,-1.91286 0.59511,-3.86823 0.97768,-5.44102 0.29756,-1.23273 0.85016,-2.25292 0.85016,-2.93305 0,-0.46759 -0.21254,-0.63762 -0.46759,-0.63762 -0.85016,0 -1.36025,2.08289 -2.21041,2.08289 -1.40276,0 -2.29543,-0.46759 -3.61318,-0.46759 -1.10521,0 -1.95537,0.21254 -3.10308,0.76515 -2.25292,1.0627 -4.20829,3.10308 -5.73858,5.52603 -1.31774,2.1254 -2.38044,4.54836 -2.38044,6.9288 z m 2.97556,-0.25505 c 0,-0.76514 0.085,-1.53028 0.21253,-2.29543 0.38258,-2.21041 1.40277,-4.12327 2.6355,-6.16365 1.27524,-2.16791 3.52816,-3.44315 5.27099,-3.44315 0.89266,0 2.80552,0.29756 2.80552,1.48778 0,0.12753 -1.14771,7.94899 -2.1679,9.98937 -0.38257,0.76515 -2.38045,3.82572 -5.44102,3.82572 -1.78534,0 -3.31562,-1.27524 -3.31562,-3.40064 z"/>
		<path d="m 711.15402,463.42189 c 0,1.19023 2.50797,0.25505 2.50797,1.14772 0,1.14771 -1.78533,8.034 -1.78533,11.94474 0,3.31562 1.57279,3.99575 2.72051,3.99575 2.63549,0 6.24867,-2.89055 6.24867,-3.99575 0,-0.59512 -0.34006,-0.59512 -0.46759,-0.59512 -0.68012,0 -1.65781,1.87036 -3.99575,1.87036 -0.17003,0 -1.74282,-0.085 -1.74282,-2.33794 0,-0.68013 0.97768,-6.20617 1.36025,-8.84166 0.25505,-1.74283 0.12753,-2.50797 1.36026,-2.50797 0.93517,0 2.76302,0.21254 3.44314,0.21254 0.76515,0 1.02019,-0.25505 1.02019,-1.23273 0,-0.5101 -0.21254,-0.80765 -1.1052,-0.80765 -0.46759,0 -0.80765,0.0425 -2.46547,0.0425 -1.40276,0 -1.48777,-0.0425 -1.48777,-0.29755 0,-0.63762 0.76514,-2.63549 0.76514,-3.1881 0,-0.38257 -0.21254,-0.51009 -0.42508,-0.51009 -0.68013,0 -0.76514,0.5526 -2.46546,2.33793 -1.87035,1.95537 -3.48566,1.91286 -3.48566,2.76302 z"/>
		<path d="m 723.40296,473.75133 c 0,3.78321 1.31775,6.75877 6.71626,6.75877 3.69819,0 7.39639,-2.97556 7.39639,-3.95325 0,-0.25504 -0.17003,-0.42508 -0.5101,-0.42508 -0.46759,0 -2.1679,1.82785 -4.59086,1.82785 -4.20829,0 -6.12115,-2.1254 -6.12115,-5.3135 0,-1.10521 0.12753,-1.74283 0.72264,-1.74283 3.99575,-0.0425 6.29118,-0.97768 6.67375,-1.14771 0.80765,-0.34006 4.12327,-2.08289 4.12327,-5.14346 0,-1.87036 -1.70032,-3.14559 -3.69819,-3.14559 -2.38045,0 -4.33581,0.76514 -5.90861,2.25292 -2.93305,2.72051 -4.8034,6.37619 -4.8034,10.03188 z m 3.48566,-4.42083 c 0,-0.5526 0.97768,-3.27311 2.25292,-4.59086 1.1052,-1.14772 2.42295,-1.99788 3.48565,-1.99788 0.72264,0 2.25292,0.38258 2.25292,1.99788 0,2.678 -3.48565,5.44102 -7.60892,5.44102 -0.29756,0 -0.38257,-0.5526 -0.38257,-0.85016 z"/>
		<path d="m 739.86816,474.6865 c 0,3.1881 1.48777,5.65356 5.10095,5.65356 4.20829,0 6.3762,-4.76089 6.75877,-4.76089 0.59511,0 -0.38257,4.76089 2.59299,4.76089 2.76301,0 5.44102,-4.2933 5.44102,-5.18597 0,-0.17003 -0.12753,-0.38257 -0.46759,-0.38257 -0.68013,0 -1.65781,2.63549 -3.52816,2.63549 -0.97769,0 -1.10521,-0.89266 -1.10521,-1.82784 0,-1.27524 0.42508,-3.95324 0.89267,-7.18385 2.38044,-17.38575 2.80552,-18.74601 2.80552,-19.85122 0,-0.38257 -0.29755,-0.72263 -0.68013,-0.72263 -1.14771,0 -0.89266,0.085 -3.27311,0.68013 -1.19022,0.29755 -2.678,0.12752 -2.678,0.85015 0,0.29756 0.25505,0.46759 0.68013,0.46759 0.0425,0 1.02019,-0.0425 1.48778,-0.0425 0.63762,0 1.23273,0.42508 1.23273,1.0627 0,0.29756 -1.40277,11.47715 -1.53029,11.47715 -1.19022,0 -2.04038,-0.5526 -3.14559,-0.5526 -5.05845,0 -10.58448,6.33369 -10.58448,12.92242 z m 2.97555,-1.19022 c 0,-4.46334 3.48566,-10.83953 7.39639,-10.83953 1.14772,0 2.84803,0.5526 2.84803,1.70032 0,1.70032 -0.63762,9.18172 -2.33793,11.30712 -1.10521,1.40276 -2.76302,2.21041 -4.29331,2.21041 -2.59299,0 -3.61318,-1.91286 -3.61318,-4.37832 z"/>
		<path d="m 771.07033,476.98193 c 0,2.46547 2.678,3.57067 5.18597,3.57067 6.58874,0 11.60468,-7.60892 11.60468,-13.39001 0,-2.76301 -1.48778,-5.39851 -4.67588,-5.39851 -4.88842,0 -6.88629,3.95324 -7.4814,3.95324 -0.085,0 -0.21254,-0.34006 -0.21254,-0.63762 0,-3.06057 2.72051,-15.72795 2.72051,-16.49309 0,-0.46759 -0.34007,-0.76514 -0.80765,-0.76514 -0.25505,0 -1.02019,0.25505 -2.67801,0.46759 -1.95536,0.25504 -3.14558,0.21254 -3.14558,1.06269 0,0.59512 0.34006,0.59512 0.80765,0.59512 0.63762,0 1.1052,-0.085 1.74282,-0.085 0.85016,0 1.0627,0.29756 1.0627,0.5101 0,1.02019 -0.25505,2.50797 -0.63762,4.33581 -0.63762,3.14559 -1.14771,7.26886 -1.91286,11.68969 -0.59511,3.44315 -1.57279,7.86397 -1.57279,10.58448 z m 2.80553,-0.51009 c 0,-0.42508 0.46758,-4.97343 1.70031,-8.33156 1.36026,-3.6982 4.12328,-4.12328 5.14347,-4.12328 2.33794,0 4.16578,1.95537 4.16578,4.33582 0,4.88841 -3.91073,11.00956 -7.73645,11.00956 -2.63549,0 -3.27311,-1.44527 -3.27311,-2.89054 z"/>
		<path d="m 789.50617,485.3135 c 0,1.95536 1.70032,2.50797 3.52816,2.50797 3.99575,0 6.71626,-4.84591 8.71414,-9.90436 2.50797,-6.33369 3.52816,-12.19979 3.52816,-14.11265 0,-1.31774 -0.72264,-2.25292 -1.65781,-2.25292 -1.02019,0 -1.44527,0.80765 -1.44527,1.5728 0,1.14771 1.0627,1.99787 1.0627,3.2306 0,2.84804 -0.93518,7.39639 -1.53029,7.39639 -0.46759,0 -4.50585,-12.07226 -8.62912,-12.07226 -2.59299,0 -3.44314,3.69819 -3.44314,5.48352 0,0.72264 0.17003,0.93518 0.42507,0.93518 1.27524,0 0.38258,-3.1881 2.84804,-3.1881 2.25292,0 6.9288,10.96706 6.9288,13.3475 0,1.61531 -2.80553,7.05633 -5.27099,7.05633 -1.95537,0 -1.99787,-1.40277 -3.69819,-1.40277 -0.72264,0 -1.36026,0.68013 -1.36026,1.40277 z"/>
	</g>
	<g aria-label="HENRY SPALDING" class="contributor">
		<path d="m 466.06323,524.51462 h 12.44444 V 540 h 8.79532 v -38.59649 h -8.79532 v 15.39181 h -12.44444 v -15.39181 h -8.79532 V 540 h 8.79532 z"/>
		<path d="M 519.98574,501.40351 H 497.90387 V 540 h 22.08187 v -7.7193 h -13.28655 v -7.76608 h 12.72515 v -7.7193 h -12.72515 v -7.67251 h 13.28655 z"/>
		<path d="m 538.83735,516.04678 h 0.0936 L 554.27595,540 h 8.79532 v -38.59649 h -8.79532 v 23.95321 h -0.0936 l -15.34503,-23.95321 h -8.79532 V 540 h 8.79532 z"/>
		<path d="M 573.69335,501.40351 V 540 h 8.79532 V 524.74854 L 594.27815,540 h 11.18128 l -13.28655,-15.95322 c 4.72515,-1.49707 7.90644,-5.38011 7.90644,-11.18128 0,-7.57895 -5.4269,-11.46199 -12.5848,-11.46199 z m 8.79532,17.12281 v -10.10527 h 1.02924 c 3.32164,0 7.29825,0.23392 7.29825,5.05263 0,4.81872 -3.97661,5.05264 -7.29825,5.05264 z"/>
		<path d="m 603.81397,501.40351 14.22222,21.28655 V 540 h 8.79533 v -17.30994 l 14.22222,-21.28655 h -10.5731 l -8.04679,12.35088 -8.04678,-12.35088 z"/>
		<path d="m 678.57347,500.70175 c -6.22222,0 -12.58479,4.5848 -12.58479,11.78948 0,4.02339 2.71345,7.62573 7.34503,9.91813 4.58479,2.29239 8.70175,3.55555 8.70175,6.36257 0,3.60234 -3.64912,3.78947 -5.56725,3.78947 -4.3041,0 -9.45029,-4.35087 -9.45029,-4.35087 l -4.39767,7.39181 c 0,0 5.47369,5.09941 14.50293,5.09941 7.53216,0 14.54971,-3.22807 14.54971,-12.44444 0,-5.05263 -4.72515,-8.70175 -9.02924,-10.52632 -4.39766,-1.87134 -8.04679,-3.4152 -8.04679,-5.56725 0,-2.10526 1.59065,-3.46199 4.5848,-3.46199 3.97661,0 7.81286,2.66667 7.81286,2.66667 l 3.55556,-7.01754 c 0,0 -4.95906,-3.64913 -11.97661,-3.64913 z"/>
		<path d="M 700.78399,501.40351 V 540 h 8.79532 v -14.31579 h 5.28655 c 7.53216,0 13.19298,-4.44444 13.19298,-12.39766 0,-8 -5.66082,-11.88304 -13.19298,-11.88304 z m 8.79532,17.26316 v -10.24562 h 2.47953 c 3.46199,0 6.73684,1.16959 6.73684,5.1462 0,3.92983 -3.27485,5.09942 -6.73684,5.09942 z"/>
		<path d="m 753.52961,501.40351 h -8.14035 L 729.81031,540 h 9.45029 l 2.8538,-7.7193 h 14.69006 l 2.8538,7.7193 h 9.4503 z m 0.2807,23.15789 h -8.70175 l 4.30409,-11.22807 h 0.0936 z"/>
		<path d="m 784.36367,501.40351 h -8.79532 V 540 h 22.08187 v -7.7193 h -13.28655 z"/>
		<path d="M 806.97552,501.40351 V 540 h 11.18128 c 10.61989,0 19.46199,-8.04678 19.46199,-19.32164 0,-11.22807 -8.88889,-19.27485 -19.46199,-19.27485 z m 8.79532,30.73684 v -22.87719 h 1.35672 c 6.54971,0 10.99416,5.00585 10.99416,11.46199 -0.0468,6.45614 -4.49123,11.4152 -10.99416,11.4152 z"/>
		<path d="m 855.31033,501.40351 h -8.79532 V 540 h 8.79532 z"/>
		<path d="m 874.74746,516.04678 h 0.0936 L 890.18606,540 h 8.79532 v -38.59649 h -8.79532 v 23.95321 h -0.0936 l -15.34503,-23.95321 h -8.79532 V 540 h 8.79532 z"/>
		<path d="m 944.50403,518.38596 h -17.82456 v 6.78363 h 8.88889 c 0,4.72515 -4.16374,7.4386 -8.37427,7.4386 -5.4269,0 -9.82456,-5.33334 -9.82456,-11.88304 0,-6.69006 4.39766,-12.07018 9.82456,-12.07018 3.4152,0 6.36257,1.35673 8.60819,4.95906 l 5.75438,-6.31578 c -3.36842,-4.07018 -8.09356,-6.5965 -14.87719,-6.5965 -10.8538,0 -18.80702,8.93568 -18.80702,20.0234 0,11.04093 8.42106,19.9766 18.80702,19.9766 7.57895,0 15.7193,-4.16374 17.82456,-13.94152 z"/>
	</g>
</svg>
